/* XPM */
static char *a68621c7908141af9dc0addbb5e413eb[] = {
/* columns rows colors chars-per-pixel */
"16 16 58 1 ",
"  c #0E5371",
". c #067975",
"X c #077B76",
"o c #029076",
"O c #02997D",
"+ c #125884",
"@ c #0D7388",
"# c #15679A",
"$ c #15679B",
"% c #0E7A90",
"& c #107695",
"* c #166BA1",
"= c #1A6AAF",
"- c #1C72BE",
"; c #1B7EC2",
": c #069E8E",
"> c #099E9B",
", c #03A88B",
"< c #06A897",
"1 c #03B092",
"2 c #03B798",
"3 c #03BD9C",
"4 c #1388AC",
"5 c #119EB8",
"6 c #0AA8A4",
"7 c #0DA5AF",
"8 c #0AABA8",
"9 c #06B3A1",
"0 c #07B9A6",
"q c #0AB3AF",
"w c #0EADB8",
"e c #0EAFBB",
"r c #10ABBD",
"t c #09BEB2",
"y c #09BEB3",
"u c #09BFB3",
"i c #0FB3BE",
"p c #0BBCB8",
"a c #03C9A6",
"s c #07C2AE",
"d c #1C85CC",
"f c #1994CD",
"g c #1B9BD7",
"h c #12A6C1",
"j c #10AEC1",
"k c #13AECA",
"l c #13AECB",
"z c #0FB6C1",
"x c #11B3C5",
"c c #17A8D5",
"v c #18A5D8",
"b c #1CA0DF",
"n c #1F97E6",
"m c #2096E8",
"M c #2197EA",
"N c #2099E9",
"B c #2099EA",
"V c None",
/* pixels */
"VVVVVVVVVVVVVVVV",
"VVVVVVVVVVVVVVVV",
"VVVVVV30qwh4VVVV",
"VVVVVVaspzlc VVV",
"VVVjvV,spzkcgVVV",
"VVXxvdV:>ikcb$VV",
"VVtxvmVVVVkcbBVV",
"Votxv*VVVV@cbB-V",
"VOyxv$VVVV%cbB=V",
"VVyxvmVVVVlcbnVV",
"VVXxv;V<6ikcb+VV",
"VVVrvV1spzlcfVVV",
"VVVVVVaspzlcVVVV",
"VVVVVV29875&VVVV",
"VVVVVVVVVVVVVVVV",
"VVVVVVVVVVVVVVVV"
};
