/* XPM */
static char *_767d8238b3a4907bd700fa01a7320be[] = {
/* columns rows colors chars-per-pixel */
"32 32 114 2 ",
"   c #026E5A",
".  c #01765D",
"X  c #046E65",
"o  c #047466",
"O  c #0A6271",
"+  c #087E7E",
"@  c #03816D",
"#  c #01896C",
"$  c #058176",
"%  c #07827D",
"&  c #048978",
"*  c #019273",
"=  c #019675",
"-  c #03917A",
";  c #135384",
":  c #14578B",
">  c #155991",
",  c #145E92",
"<  c #0C7485",
"1  c #136C99",
"2  c #107B98",
"3  c #1A65AD",
"4  c #1376A0",
"5  c #1377A1",
"6  c #1D6FBE",
"7  c #1B72BA",
"8  c #187DB8",
"9  c #069286",
"0  c #08948E",
"q  c #0C8490",
"w  c #099292",
"e  c #0A9897",
"r  c #089E97",
"t  c #0B959B",
"y  c #0D929F",
"u  c #02A485",
"i  c #04A48B",
"p  c #03A88E",
"a  c #02AE8D",
"s  c #05A591",
"d  c #07A395",
"f  c #04B498",
"g  c #04B598",
"h  c #05B29C",
"j  c #02BB98",
"k  c #0F8FA3",
"l  c #108CA7",
"z  c #0D94A1",
"x  c #0C96A0",
"c  c #0C9DA4",
"v  c #1392B5",
"b  c #119DB5",
"n  c #1593BE",
"m  c #129DBA",
"M  c #07AFA0",
"N  c #09ACA5",
"B  c #0CA6AD",
"V  c #0DA5AF",
"C  c #0BA9A9",
"Z  c #0AAEAA",
"A  c #0AB2AE",
"S  c #07BDAB",
"D  c #07BFAC",
"F  c #0EA3B1",
"G  c #0DACB3",
"H  c #10A0B6",
"J  c #0ABEB6",
"K  c #0EB7BF",
"L  c #0CBABA",
"P  c #0BBCB8",
"I  c #01C69B",
"U  c #01C99D",
"Y  c #01CA9E",
"T  c #02C5A0",
"R  c #04C7A6",
"E  c #01CDA0",
"W  c #03CAA4",
"Q  c #04C8A7",
"!  c #04C7A8",
"~  c #07C2AF",
"^  c #06C4AC",
"/  c #08C1B1",
"(  c #1981C0",
")  c #1989C2",
"_  c #1B8BCD",
"`  c #1F8DDD",
"'  c #1A9DD5",
"]  c #1D93DB",
"[  c #2088DC",
"{  c #12ADC4",
"}  c #16A6CF",
"|  c #12AEC8",
" . c #12AFCA",
".. c #14ADCD",
"X. c #0FB6C1",
"o. c #10B4C4",
"O. c #12B0C8",
"+. c #18A3D4",
"@. c #16A9D3",
"#. c #18A6D8",
"$. c #1AA1DC",
"%. c #1AA2DC",
"&. c #1AA2DD",
"*. c #1D9EE2",
"=. c #1D9FE2",
"-. c #1F9BE7",
";. c #218CE3",
":. c #228FE8",
">. c #2291EB",
",. c #2196EB",
"<. c #2392EF",
"1. c #2197ED",
"2. c #2394F1",
"3. c None",
/* pixels */
"3.3.3.3.3.3.3.3.3.3.3.3.3.3.3.3.3.3.3.3.3.3.3.3.3.3.3.3.3.3.3.3.",
"3.3.3.3.3.3.3.3.3.3.3.3.3.3.3.3.3.3.3.3.3.3.3.3.3.3.3.3.3.3.3.3.",
"3.3.3.3.3.3.3.3.3.3.3.3.3.3.3.3.3.3.3.3.3.3.3.3.3.3.3.3.3.3.3.3.",
"3.3.3.3.3.3.3.3.3.3.3.3.3.3.3.3.3.3.3.3.3.3.3.3.3.3.3.3.3.3.3.3.",
"3.3.3.3.3.3.3.3.3.3.3.3.a g h M N C B V b m v 3.3.3.3.3.3.3.3.3.",
"3.3.3.3.3.3.3.3.3.3.3.I W ! ^ / J L K o.O. .@.#.3.3.3.3.3.3.3.3.",
"3.3.3.3.3.3.3.3.3.3.3.Y W ! ^ / J L X.o.O...@.#.5 3.3.3.3.3.3.3.",
"3.3.3.3.3.3.3.| @.5 3.. W ! ^ / J L K o.O...@.#.&.3.3.3.3.3.3.3.",
"3.3.3.3.3.3.V  .@.&.3.3.j ! ^ / J L K o.O...@.#.&.) 3.3.3.3.3.3.",
"3.3.3.3.3.3.X. .@.&._ 3.3.! ^ / J L K o.O...@.#.&.=.3.3.3.3.3.3.",
"3.3.3.3.3.A X. .@.&.-.3.3.i ^ / J L K o.O...@.#.%.=.] 3.3.3.3.3.",
"3.3.3.3.X P X. .@.&.-.:.3.3.o $ % + c o.O...@.#.%.=.-., 3.3.3.3.",
"3.3.3.3.S P X. .@.&.-.2.3.3.3.3.3.3.3.q O...@.#.&.=.-.,.3.3.3.3.",
"3.3.3.@ ~ P X. .@.&.-.;.3.3.3.3.3.3.3.3.{ ..@.#.%.=.-.1.7 3.3.3.",
"3.3.3.R ~ P X.O.@.&.-.: 3.3.3.3.3.3.3.3.O ..@.#.%.=.-.1.2.3.3.3.",
"3.3.# Q ~ P X.| @.&.-.3.3.3.3.3.3.3.3.3.3...@.#.%.=.-.1.2.6 3.3.",
"3.3.= Q ~ P X. .@.&.-.3.3.3.3.3.3.3.3.3.3...@.#.&.=.-.1.2.3 3.3.",
"3.3.3.Q ~ P X. .@.&.-.; 3.3.3.3.3.3.3.3.< ..@.#.%.=.-.1.1.3.3.3.",
"3.3.3.- ~ P X. .@.&.-.>.3.3.3.3.3.3.3.3.O...@.#.%.=.-.1.> 3.3.3.",
"3.3.3.3.~ P X. .@.&.-.2.3.3.3.3.3.3.3.z O...@.#.%.=.-.[ 3.3.3.3.",
"3.3.3.3.X P X.| @.&.-.[ 3.3.& 9 0 w G o.O...@.#.&.=.-.3.3.3.3.3.",
"3.3.3.3.3.A X.| @.&.-.3.3.g ^ / J L K o.O...@.#.&.=.( 3.3.3.3.3.",
"3.3.3.3.3.3.X.| @.&.8 3.  ! ^ / J L K o.O...@.#.&.=.3.3.3.3.3.3.",
"3.3.3.3.3.3.z | @.&.3.3.T ! ^ / J L K o.O...@.#.%.1 3.3.3.3.3.3.",
"3.3.3.3.3.3.3.b } 3.3.* Q Q ^ / J L K o.O...@.#.' 3.3.3.3.3.3.3.",
"3.3.3.3.3.3.3.3.3.3.3.E W Q ^ / J L K o.O...@.#.3.3.3.3.3.3.3.3.",
"3.3.3.3.3.3.3.3.3.3.3.Y W R ^ / J L K o.O...@.n 3.3.3.3.3.3.3.3.",
"3.3.3.3.3.3.3.3.3.3.3.3.u p s d r e t y k l 2 3.3.3.3.3.3.3.3.3.",
"3.3.3.3.3.3.3.3.3.3.3.3.3.3.3.3.3.3.3.3.3.3.3.3.3.3.3.3.3.3.3.3.",
"3.3.3.3.3.3.3.3.3.3.3.3.3.3.3.3.3.3.3.3.3.3.3.3.3.3.3.3.3.3.3.3.",
"3.3.3.3.3.3.3.3.3.3.3.3.3.3.3.3.3.3.3.3.3.3.3.3.3.3.3.3.3.3.3.3.",
"3.3.3.3.3.3.3.3.3.3.3.3.3.3.3.3.3.3.3.3.3.3.3.3.3.3.3.3.3.3.3.3."
};
