/* XPM */
static char *e21ebef5cbf045c2aff48084daef183a[] = {
/* columns rows colors chars-per-pixel */
"64 64 212 2 ",
"   c #046158",
".  c #04665F",
"X  c #017059",
"o  c #007258",
"O  c #02705C",
"+  c #01735D",
"@  c #02735E",
"#  c #0E5C78",
"$  c #076566",
"%  c #056B65",
"&  c #066A67",
"*  c #09646F",
"=  c #066968",
"-  c #076B6C",
";  c #037564",
":  c #027D69",
">  c #0C6075",
",  c #0C6177",
"<  c #0B6D7A",
"1  c #0B6E7C",
"2  c #0B6F7C",
"3  c #0C6E7E",
"4  c #077574",
"5  c #087377",
"6  c #087475",
"7  c #077A76",
"8  c #097278",
"9  c #0A717A",
"0  c #0A707B",
"q  c #097479",
"w  c #018268",
"e  c #018368",
"r  c #048775",
"t  c #048677",
"y  c #028A71",
"u  c #038973",
"i  c #038874",
"p  c #058579",
"a  c #06847A",
"s  c #06837C",
"d  c #07847F",
"f  c #019472",
"g  c #019174",
"h  c #02957B",
"j  c #125383",
"k  c #125787",
"l  c #155089",
"z  c #15518B",
"x  c #16528D",
"c  c #125A88",
"v  c #17599A",
"b  c #185A9B",
"n  c #0F6283",
"m  c #0D6B81",
"M  c #0C6D80",
"N  c #0F6D89",
"B  c #136594",
"V  c #136794",
"C  c #13769F",
"Z  c #117A9D",
"A  c #1861A0",
"S  c #1960A3",
"D  c #1866A4",
"F  c #196FAF",
"G  c #147AA7",
"H  c #1675AA",
"J  c #197AB7",
"K  c #1C73BD",
"L  c #187EBA",
"P  c #1B79BF",
"I  c #1E79C8",
"U  c #1F7FD2",
"Y  c #098484",
"T  c #0A8B8F",
"R  c #049680",
"E  c #059F8D",
"W  c #069D8F",
"Q  c #0C8895",
"!  c #0C8995",
"~  c #089590",
"^  c #079C91",
"/  c #089B93",
"(  c #089994",
")  c #099896",
"_  c #0A9798",
"`  c #0B969A",
"'  c #0D919D",
"]  c #0D939E",
"[  c #0C949C",
"{  c #02A083",
"}  c #02A285",
"|  c #03A288",
" . c #04A189",
".. c #05A08B",
"X. c #01AD89",
"o. c #01B48B",
"O. c #01B18C",
"+. c #07A295",
"@. c #07A497",
"#. c #02B894",
"$. c #01BF94",
"%. c #04B799",
"&. c #06B09C",
"*. c #04BC9F",
"=. c #0F8EA4",
"-. c #108DA6",
";. c #1189A8",
":. c #118BA8",
">. c #0D92A0",
",. c #0E90A2",
"<. c #0F90A6",
"1. c #1786BA",
"2. c #0CA7AE",
"3. c #0DA6AF",
"4. c #06B7A1",
"5. c #0FAAB7",
"6. c #0FAEBC",
"7. c #10A3B7",
"8. c #12A5BE",
"9. c #0CB6B6",
"0. c #09BFB4",
"q. c #0ABDB7",
"w. c #0ABEB6",
"e. c #0DB6BD",
"r. c #0EB6BF",
"t. c #0BBBB9",
"y. c #0CBBBA",
"u. c #0CBABB",
"i. c #0DB8BE",
"p. c #0EB8BE",
"a. c #01C397",
"s. c #01C69D",
"d. c #01C89E",
"f. c #01CD9F",
"g. c #03C5A1",
"h. c #03C5A2",
"j. c #06C0A7",
"k. c #04C3A6",
"l. c #04C7A6",
"z. c #01CAA0",
"x. c #02CBA2",
"c. c #01CCA1",
"v. c #03C9A5",
"b. c #04C8A7",
"n. c #04C6A8",
"m. c #04C6A9",
"M. c #06C5AB",
"N. c #06C3AD",
"B. c #06C4AD",
"V. c #08C1B1",
"C. c #08C2B0",
"Z. c #08C0B2",
"A. c #178CC0",
"S. c #198BC4",
"D. c #1C86CC",
"F. c #1794C5",
"G. c #169CC7",
"H. c #179BCB",
"J. c #1E82D2",
"K. c #1D89D4",
"L. c #1D8ED6",
"P. c #1F8BDC",
"I. c #1C93D5",
"U. c #1B98D7",
"Y. c #1C97D9",
"T. c #1B9EDC",
"R. c #2186DE",
"E. c #11ACC2",
"W. c #13A9C6",
"Q. c #13AFCA",
"!. c #13AECC",
"~. c #14ACCE",
"^. c #0EB6C0",
"/. c #10B0C1",
"(. c #10B5C2",
"). c #10B4C3",
"_. c #10B3C5",
"`. c #11B0C6",
"'. c #11B1C7",
"]. c #12B1C7",
"[. c #18A2D5",
"{. c #18A5D4",
"}. c #18A7D6",
"|. c #15AAD1",
" X c #16AAD1",
".X c #17A9D4",
"XX c #1AA2D9",
"oX c #1AA3DB",
"OX c #19A5D9",
"+X c #19A4DA",
"@X c #1BA1DE",
"#X c #1CA0DF",
"$X c #1F97E5",
"%X c #1C9FE1",
"&X c #1D9DE2",
"*X c #1D9EE3",
"=X c #1E9BE5",
"-X c #1E9DE4",
";X c #1E9CE6",
":X c #1F9AE8",
">X c #2286E4",
",X c #238DE9",
"<X c #2090E5",
"1X c #2192E7",
"2X c #2096E8",
"3X c #2296EE",
"4X c #2099E9",
"5X c #2098EB",
"6X c #2492F3",
"7X c #2395F0",
"8X c #2591F6",
"9X c None",
/* pixels */
"9X9X9X9X9X9X9X9X9X9X9X9X9X9X9X9X9X9X9X9X9X9X9X9X9X9X9X9X9X9X9X9X9X9X9X9X9X9X9X9X9X9X9X9X9X9X9X9X9X9X9X9X9X9X9X9X9X9X9X9X9X9X9X9X",
"9X9X9X9X9X9X9X9X9X9X9X9X9X9X9X9X9X9X9X9X9X9X9X9X9X9X9X9X9X9X9X9X9X9X9X9X9X9X9X9X9X9X9X9X9X9X9X9X9X9X9X9X9X9X9X9X9X9X9X9X9X9X9X9X",
"9X9X9X9X9X9X9X9X9X9X9X9X9X9X9X9X9X9X9X9X9X9X9X9X9X9X9X9X9X9X9X9X9X9X9X9X9X9X9X9X9X9X9X9X9X9X9X9X9X9X9X9X9X9X9X9X9X9X9X9X9X9X9X9X",
"9X9X9X9X9X9X9X9X9X9X9X9X9X9X9X9X9X9X9X9X9X9X9X9X9X9X9X9X9X9X9X9X9X9X9X9X9X9X9X9X9X9X9X9X9X9X9X9X9X9X9X9X9X9X9X9X9X9X9X9X9X9X9X9X",
"9X9X9X9X9X9X9X9X9X9X9X9X9X9X9X9X9X9X9X9X9X9X9X9X9X9X9X9X9X9X9X9X9X9X9X9X9X9X9X9X9X9X9X9X9X9X9X9X9X9X9X9X9X9X9X9X9X9X9X9X9X9X9X9X",
"9X9X9X9X9X9X9X9X9X9X9X9X9X9X9X9X9X9X9X9X9X9X9X9X9X9X9X9X9X9X9X9X9X9X9X9X9X9X9X9X9X9X9X9X9X9X9X9X9X9X9X9X9X9X9X9X9X9X9X9X9X9X9X9X",
"9X9X9X9X9X9X9X9X9X9X9X9X9X9X9X9X9X9X9X9X9X9X9X9X9X9X9X9X9X9X9X9X9X9X9X9X9X9X9X9X9X9X9X9X9X9X9X9X9X9X9X9X9X9X9X9X9X9X9X9X9X9X9X9X",
"9X9X9X9X9X9X9X9X9X9X9X9X9X9X9X9X9X9X9X9X9X9X9X9X9X9X9X9X9X9X9X9X9X9X9X9X9X9X9X9X9X9X9X9X9X9X9X9X9X9X9X9X9X9X9X9X9X9X9X9X9X9X9X9X",
"9X9X9X9X9X9X9X9X9X9X9X9X9X9X9X9X9X9X9X9X9X9X9X9Xe } ......E W / / / ) _ ` ` >.>.<.-.-.:.:.N 9X9X9X9X9X9X9X9X9X9X9X9X9X9X9X9X9X9X",
"9X9X9X9X9X9X9X9X9X9X9X9X9X9X9X9X9X9X9X9X9X9X9Xs.z.v.v.n.M.B.V.V.w.w.y.y.p.^.^.).'.'.~.~. X.X}.9X9X9X9X9X9X9X9X9X9X9X9X9X9X9X9X9X",
"9X9X9X9X9X9X9X9X9X9X9X9X9X9X9X9X9X9X9X9X9X9Xo.c.x.v.b.n.M.N.V.V.0.q.y.y.p.^._.'.'.!.!.~. X.X.XH.9X9X9X9X9X9X9X9X9X9X9X9X9X9X9X9X",
"9X9X9X9X9X9X9X9X9X9X9X9X9X9X9X9X9X9X9X9X9X9Xf.c.x.v.v.n.M.N.V.V.0.q.u.y.^.^.^.).'.'.!.~. X.X+X+Xn 9X9X9X9X9X9X9X9X9X9X9X9X9X9X9X",
"9X9X9X9X9X9X9X9X9X9X9X9X9X9X9X9X9X9X9X9X9X9Xc.c.x.v.b.n.M.N.V.V.0.q.q.u.e.^.).).'.Q.!.~. X.X.X+XXX9X9X9X9X9X9X9X9X9X9X9X9X9X9X9X",
"9X9X9X9X9X9X9X9X9X9X9X9X9X9X9X9X> 9X9X9X9X9Xa.c.x.v.b.n.M.N.V.V.0.q.u.u.e.^.^._.'.Q.!.~. X.X.X+XXXG 9X9X9X9X9X9X9X9X9X9X9X9X9X9X",
"9X9X9X9X9X9X9X9X9X9X9X9X9X9XE.!.|.}.F.9X9X9X9Xc.c.v.b.n.M.N.V.V.0.q.u.u.e.^.^._.'.Q.~.~. X.X.X+X+X#X9X9X9X9X9X9X9X9X9X9X9X9X9X9X",
"9X9X9X9X9X9X9X9X9X9X9X9X9X6.].!.|.}.+X1.9X9X9XX.c.v.b.B.M.N.V.V.0.q.q.u.p.^.).].'.Q.Q.~. X.X}.+XoX#XS.9X9X9X9X9X9X9X9X9X9X9X9X9X",
"9X9X9X9X9X9X9X9X9X9X9X9Xq ).].!.|.}.+X#X9X9X9X9Xz.v.b.n.B.B.V.V.Z.q.y.y.^.^.(._.'.Q.!.~. X.X.X}.oX#X#X9X9X9X9X9X9X9X9X9X9X9X9X9X",
"9X9X9X9X9X9X9X9X9X9X9X9Xe.).].!.|.}.+X#XI.9X9X9Xg v.b.n.B.N.V.V.Z.q.y.y.i.^.(.].'.Q.!.~. X.X}.oXoX#X#XY.9X9X9X9X9X9X9X9X9X9X9X9X",
"9X9X9X9X9X9X9X9X9X9X9XY p.).].!.|.}.+X#X-Xc 9X9X9Xh.b.B.n.N.V.V.q.q.y.y.i.^.(.).'.Q.!.~. X.X.XoX+X@X#X-XB 9X9X9X9X9X9X9X9X9X9X9X",
"9X9X9X9X9X9X9X9X9X9X9Xy.p.).].!.|.}.+X#X-X$X9X9X9X@ b.n.B.B.V.V.Z.q.q.y.i.^.(.].'.Q.!. X X.X.X+X@X%X%X-X:X9X9X9X9X9X9X9X9X9X9X9X",
"9X9X9X9X9X9X9X9X9X9X~ y.p.).].!.|.}.+X#X-X4XF 9X9X9X%.n.B.N.N.0.Z.q.y.u.p.^.^.).'.Q.!.~. X.X}.+X+X@X#X-X;XJ 9X9X9X9X9X9X9X9X9X9X",
"9X9X9X9X9X9X9X9X9X9Xw.y.p.).].!.|.}.+X#X-X4X3X9X9X9X9Xn.n.N.V.V.q.q.y.u.p.^.).).'.Q.!.~. X.X}.oX+X@X#X*X;X:X9X9X9X9X9X9X9X9X9X9X",
"9X9X9X9X9X9X9X9X9X@.w.y.p.).].!.|.}.+X#X-X4X3XU 9X9X9X9Xj.N.V.V.Z.q.y.u.^.^.).).'.Q.!.~. X.X.X+X+X@X#X*X;X:XK.9X9X9X9X9X9X9X9X9X",
"9X9X9X9X9X9X9X9X9XV.w.y.p.).].!.|.}.+X#X-X4X3X6X9X9X9X9X9X9X9X9X9X9X9X9X9X3.).).'.Q.!.~. X.X}.+X@X@X#X*X;X:X:X9X9X9X9X9X9X9X9X9X",
"9X9X9X9X9X9X9X9X&.V.w.y.p.).].!.|.}.+X#X-X4X3X6Xl 9X9X9X9X9X9X9X9X9X9X9X9X9X>.].'.Q.~.~. X.X.X+X+X@X%X*X;X:X:X1X9X9X9X9X9X9X9X9X",
"9X9X9X9X9X9X9X9XB.V.w.y.p.).].!.|.}.+X#X-X4X3X6X9X9X9X9X9X9X9X9X9X9X9X9X9X9X9X/.'.!.Q.~. X.X.X+X@X%X%X*X;X:X3X7XD 9X9X9X9X9X9X9X",
"9X9X9X9X9X9X9X*.B.V.w.y.p.).].!.|.}.+X#X-X4X3X6X9X9X9X9X9X9X9X9X9X9X9X9X9X9X9X* ].'.!.~. X.X.X+X+X@X%X*X;X:X:X7X7X9X9X9X9X9X9X9X",
"9X9X9X9X9X9X@ n.B.V.w.y.p.).].!.|.}.+X#X-X4X3XK 9X9X9X9X9X9X9X9X9X9X9X9X9X9X9X9X7.Q.!.~. X.X}.+X+X@X%X*X;X:X:X3X7XI 9X9X9X9X9X9X",
"9X9X9X9X9X9Xg.n.B.V.w.y.p.).].!.|.}.+X#X-X4X3X9X9X9X9X9X9X9X9X9X9X9X9X9X9X9X9X9X9XQ.!.~.|..X.X+X+X@X%X%X;X:X5X7X7X6X9X9X9X9X9X9X",
"9X9X9X9X9Xe v.n.B.V.w.y.p.).].!.|.}.+X#X-X4XP.9X9X9X9X9X9X9X9X9X9X9X9X9X9X9X9X9X9X<.!.~. X.X.X+X@X@X%X%X;X:X5X7X7X8X>X9X9X9X9X9X",
"9X9X9X9X9Xz.v.n.B.V.w.y.p.).].!.|.}.+X#X-X4Xj 9X9X9X9X9X9X9X9X9X9X9X9X9X9X9X9X9X9X9X~.~. X.X.X+X+X@X%X-X;X:X:X3X7X6X8X9X9X9X9X9X",
"9X9X9X9X9Xc.v.n.B.V.w.y.p.).].!.|.}.+X#X-X4X9X9X9X9X9X9X9X9X9X9X9X9X9X9X9X9X9X9X9X9X~.~. X.X.X+X@X@X%X-X;X:X5X3X7X6X8Xb 9X9X9X9X",
"9X9X9X9XX c.v.n.C.Z.Z.y.p.).].!. X}.+X#X-X4X9X9X9X9X9X9X9X9X9X9X9X9X9X9X9X9X9X9X9X9X~.~. X.X+X+XoXoX#X-X;X:X:X7X7X6X8Xx 9X9X9X9X",
"9X9X9X9X9Xx.v.n.B.Z.Z.y.p.).].!.|..X+X#X-X4X9X9X9X9X9X9X9X9X9X9X9X9X9X9X9X9X9X9X9X9X!.~. X.X.X+XoX#X#X*X;X:X3X7X7X6X8X9X9X9X9X9X",
"9X9X9X9X9Xo.v.n.B.C.y.y.p.).].!.|.}.oX#X-X4XP 9X9X9X9X9X9X9X9X9X9X9X9X9X9X9X9X9X9X8.!.~. X.X.X+X@X@X#X-X;X:X:X7X7X6XS 9X9X9X9X9X",
"9X9X9X9X9X9Xv.b.B.V.Z.y.p.).].!.|.}.oX#X-X4X3X9X9X9X9X9X9X9X9X9X9X9X9X9X9X9X9X9X1 '.!.~. X.X.X+X+X%X#X-X:X:X:X7X7X,X9X9X9X9X9X9X",
"9X9X9X9X9X9Xh b.B.V.Z.p.p.).Q.!.|.}.+X#X-X4X3XR.9X9X9X9X9X9X9X9X9X9X9X9X9X9X9X9X].'.~.~. X.X.XoX+X@X*X*X;X;X:X7X7X9X9X9X9X9X9X9X",
"9X9X9X9X9X9X9Xn.B.V.Z.i.p.).).~.|.}.+X#X-X4X3X6X9X9X9X9X9X9X9X9X9X9X9X9X9X9X9X! ].Q.!.~. X.X}.}.@X@X#X*X;X:X:X7XJ.9X9X9X9X9X9X9X",
"9X9X9X9X9X9X9X; C.C.Z.p.p.).'.!.|.}.+X#X-X4X3X6Xb 9X9X9X9X9X9X9X9X9X9X9X9X9X9X).].Q.!.~. X.X}.oX+X@X#X*X;X:X5X7X9X9X9X9X9X9X9X9X",
"9X9X9X9X9X9X9X9X4.C.Z.i.p.).'.~.|.}.+X#X-X4X3X6Xz 9X9X9X9X9X9X9X9X9X9X9X9X9X5.].].Q.!. X X.X}.}.+X#X#X*X;X:X5XF 9X9X9X9X9X9X9X9X",
"9X9X9X9X9X9X9X9X9XV.w.y.p.).].'.|.}.+X#X-X4X3X6X9X9X9X9X9X9X  . % = = - T e.^.].'.'.~.~. X.X}.oX@X@X%X-X;X:X2X9X9X9X9X9X9X9X9X9X",
"9X9X9X9X9X9X9X9X9X+.w.y.p.).].~.|.}.+X#X-X4X3XA 9X9X9XR B.B.V.0.Z.q.q.p.p.^.).).'.!.!.~. X.X}.oX+X@X%X%X;X:Xc 9X9X9X9X9X9X9X9X9X",
"9X9X9X9X9X9X9X9X9X9X0.y.p.).].Q.|.}.+X#X-X4X<X9X9X9X: n.B.B.N.V.w.q.q.p.p.^.^._.'.!.!.~. X.X.X+X+X@X%X-X;XL.9X9X9X9X9X9X9X9X9X9X",
"9X9X9X9X9X9X9X9X9X9XY y.p.).].~.|.}.+X#X-X4X9X9X9X9Xn.n.M.B.V.V.Z.q.q.u.p.^.)._.'.'.!.~. X.X.X+XoX@X%X-X-X9X9X9X9X9X9X9X9X9X9X9X",
"9X9X9X9X9X9X9X9X9X9X9X9.p.).].!.|.}.+X#X-XD.9X9X9X{ b.n.B.N.N.w.w.w.u.u.i.e.).].'.!.!.~. X.X.XoXoX@X%X%XL 9X9X9X9X9X9X9X9X9X9X9X",
"9X9X9X9X9X9X9X9X9X9X9X$ p.).].!.|.}.+X#X-X9X9X9X9Xv.b.n.M.N.V.V.w.q.w.u.i.^.^._.'.Q.!.~. X.X.X+XoX@X%X%X9X9X9X9X9X9X9X9X9X9X9X9X",
"9X9X9X9X9X9X9X9X9X9X9X9X2.).].!.|.}.+X#XH 9X9X9X#.v.b.n.M.B.V.V.V.q.u.u.i.^.^._.'.Q.!.~. X.X.X+X@X@X%XB 9X9X9X9X9X9X9X9X9X9X9X9X",
"9X9X9X9X9X9X9X9X9X9X9X9X9X).].~.|.}.+XT.9X9X9XX x.v.b.n.M.N.N.w.w.w.u.u.i.^._._.'.Q.!.~. X.X}.+X+X@XY.9X9X9X9X9X9X9X9X9X9X9X9X9X",
"9X9X9X9X9X9X9X9X9X9X9X9X9X! Q.Q.|..X+X9X9X9X9Xd.c.v.b.n.B.B.N.V.Z.q.q.u.p.^._._.].Q.!.~. X.X.X+X+X#X9X9X9X9X9X9X9X9X9X9X9X9X9X9X",
"9X9X9X9X9X9X9X9X9X9X9X9X9X9X1 W.|.G.9X9X9X9Xf c.z.v.b.n.B.N.V.V.w.q.u.u.p.^.^.].].Q.!.~. X.X}.+XoXA.9X9X9X9X9X9X9X9X9X9X9X9X9X9X",
"9X9X9X9X9X9X9X9X9X9X9X9X9X9X9X9X9X9X9X9X9X9Xc.c.x.v.b.B.n.N.V.0.Z.q.y.u.p.^.^.).].Q.!.~. X.X}.+X+X9X9X9X9X9X9X9X9X9X9X9X9X9X9X9X",
"9X9X9X9X9X9X9X9X9X9X9X9X9X9X9X9X9X9X9X9X9X9Xf.c.x.v.b.b.B.N.N.V.w.q.q.y.p.^._.'.].Q.~.~. X.X.X+XC 9X9X9X9X9X9X9X9X9X9X9X9X9X9X9X",
"9X9X9X9X9X9X9X9X9X9X9X9X9X9X9X9X9X9X9X9X9X9Xc.c.x.v.b.B.B.B.V.V.Z.q.q.u.u.^._.).].Q.!.~. X.X}.[.9X9X9X9X9X9X9X9X9X9X9X9X9X9X9X9X",
"9X9X9X9X9X9X9X9X9X9X9X9X9X9X9X9X9X9X9X9X9X9Xa.c.x.v.b.n.n.B.V.V.w.q.u.u.p.^.^.).].'.!.~.|..X}.# 9X9X9X9X9X9X9X9X9X9X9X9X9X9X9X9X",
"9X9X9X9X9X9X9X9X9X9X9X9X9X9X9X9X9X9X9X9X9X9X9Xd.x.v.b.n.B.B.V.V.Z.0.u.u.p.^.).).].~.!.~.|..XZ 9X9X9X9X9X9X9X9X9X9X9X9X9X9X9X9X9X",
"9X9X9X9X9X9X9X9X9X9X9X9X9X9X9X9X9X9X9X9X9X9X9X9X@ y u u r t p p s 7 5 5 5 9 9 0 0 1 M m , 9X9X9X9X9X9X9X9X9X9X9X9X9X9X9X9X9X9X9X",
"9X9X9X9X9X9X9X9X9X9X9X9X9X9X9X9X9X9X9X9X9X9X9X9X9X9X9X9X9X9X9X9X9X9X9X9X9X9X9X9X9X9X9X9X9X9X9X9X9X9X9X9X9X9X9X9X9X9X9X9X9X9X9X9X",
"9X9X9X9X9X9X9X9X9X9X9X9X9X9X9X9X9X9X9X9X9X9X9X9X9X9X9X9X9X9X9X9X9X9X9X9X9X9X9X9X9X9X9X9X9X9X9X9X9X9X9X9X9X9X9X9X9X9X9X9X9X9X9X9X",
"9X9X9X9X9X9X9X9X9X9X9X9X9X9X9X9X9X9X9X9X9X9X9X9X9X9X9X9X9X9X9X9X9X9X9X9X9X9X9X9X9X9X9X9X9X9X9X9X9X9X9X9X9X9X9X9X9X9X9X9X9X9X9X9X",
"9X9X9X9X9X9X9X9X9X9X9X9X9X9X9X9X9X9X9X9X9X9X9X9X9X9X9X9X9X9X9X9X9X9X9X9X9X9X9X9X9X9X9X9X9X9X9X9X9X9X9X9X9X9X9X9X9X9X9X9X9X9X9X9X",
"9X9X9X9X9X9X9X9X9X9X9X9X9X9X9X9X9X9X9X9X9X9X9X9X9X9X9X9X9X9X9X9X9X9X9X9X9X9X9X9X9X9X9X9X9X9X9X9X9X9X9X9X9X9X9X9X9X9X9X9X9X9X9X9X",
"9X9X9X9X9X9X9X9X9X9X9X9X9X9X9X9X9X9X9X9X9X9X9X9X9X9X9X9X9X9X9X9X9X9X9X9X9X9X9X9X9X9X9X9X9X9X9X9X9X9X9X9X9X9X9X9X9X9X9X9X9X9X9X9X",
"9X9X9X9X9X9X9X9X9X9X9X9X9X9X9X9X9X9X9X9X9X9X9X9X9X9X9X9X9X9X9X9X9X9X9X9X9X9X9X9X9X9X9X9X9X9X9X9X9X9X9X9X9X9X9X9X9X9X9X9X9X9X9X9X",
"9X9X9X9X9X9X9X9X9X9X9X9X9X9X9X9X9X9X9X9X9X9X9X9X9X9X9X9X9X9X9X9X9X9X9X9X9X9X9X9X9X9X9X9X9X9X9X9X9X9X9X9X9X9X9X9X9X9X9X9X9X9X9X9X"
};
